<?xml version="1.0" encoding="utf-8"?>
<!-- Generator: Adobe Illustrator 19.1.0, SVG Export Plug-In . SVG Version: 6.00 Build 0)  -->
<svg version="1.1" id="Capa_1" xmlns="http://www.w3.org/2000/svg" xmlns:xlink="http://www.w3.org/1999/xlink" x="0px" y="0px"
	 width="512px" height="512px" viewBox="-305 397 512 512" style="enable-background:new -305 397 512 512;" xml:space="preserve">
<g>
	<g>
		<path d="M-44,593.3c-32.9,0-59.7,26.8-59.7,59.7c0,32.9,26.8,59.7,59.7,59.7c32.9,0,59.7-26.8,59.7-59.7
			C15.7,620.1-11.1,593.3-44,593.3z M-44,695.7c-23.5,0-42.7-19.1-42.7-42.7c0-23.5,19.1-42.7,42.7-42.7c23.5,0,42.7,19.1,42.7,42.7
			C-1.3,676.5-20.5,695.7-44,695.7z"/>
	</g>
</g>
<g>
	<g>
		<path d="M32,464.9l-15.5,7.2C37.7,517.8,49.9,583.8,49.9,653c0,129.5-43,238.9-93.9,238.9c-50.9,0-93.9-109.4-93.9-238.9
			s43-238.9,93.4-238.9c14.3,0.9,27.6,7.8,36.4,19.2l13.5-10.5C-6.4,407.5-24.2,398.2-44,397c-62.2,0-110.9,112.5-110.9,256
			S-106.2,909-44,909S66.9,796.5,66.9,653C66.9,580.3,54.5,513.5,32,464.9z"/>
	</g>
</g>
<g>
	<g>
		<path d="M177.7,525c-15.5-26.9-53.6-37.7-107.5-30.6c-51.2,6.8-111.5,29-169.7,62.6C-162,593-215.2,638.7-245.6,682.3l14,9.8
			c28.9-41.5,80.2-85.4,140.6-120.3c56.3-32.5,114.3-53.9,163.4-60.4c45.8-6,78.8,2,90.4,22.2c25.4,44.1-47.8,136-159.9,200.7
			c-56.3,32.5-114.3,54-163.4,60.5c-45.8,6-78.8-2.1-90.2-21.9c-6.3-12.4-7-27-2-40l-15.9-6.2c-6.9,17.5-5.9,37.2,2.9,54.3
			c12.4,21.5,39.3,32.8,77.2,32.8c9.4,0,19.6-0.7,30.3-2.1c51.2-6.8,111.5-29,169.7-62.6C135.7,677.3,208.7,578.9,177.7,525z"/>
	</g>
</g>
<g>
	<g>
		<path d="M150.5,672.6c-31.5-41-80.8-82-139-115.7c-124.3-71.8-246-85.8-277.1-31.9c-15.5,26.9-5.9,65.4,27.2,108.4
			c31.5,41,80.8,82,139,115.7c63,36.4,129.6,59.8,182.8,64l1.4-17C34,792-30,769.5-90.9,734.3c-56.3-32.5-103.9-72-134-111.3
			c-28.2-36.7-37.6-69.3-25.9-89.5c25.5-44,141.7-26.5,253.8,38.2c56.3,32.5,103.9,72,134,111.3c28.2,36.7,37.6,69.3,26.1,89.1
			c-6.7,10.5-17.5,18-29.7,20.5l3.5,16.7c16.6-3.5,31.4-13.8,40.7-28.4C193.2,754.1,183.6,715.6,150.5,672.6z"/>
	</g>
</g>
<g>
	<g>
		<path d="M15.7,414.1c-18.8,0-34.1,15.3-34.1,34.1c0,18.8,15.3,34.1,34.1,34.1c18.8,0,34.1-15.3,34.1-34.1S34.6,414.1,15.7,414.1z
			 M15.7,465.3c-9.4,0-17.1-7.7-17.1-17.1c0-9.4,7.7-17.1,17.1-17.1c9.4,0,17.1,7.7,17.1,17.1C32.8,457.6,25.2,465.3,15.7,465.3z"/>
	</g>
</g>
<g>
	<g>
		<path d="M-248.8,670.1c-18.8,0-34.1,15.3-34.1,34.1c0,18.8,15.3,34.1,34.1,34.1c18.8,0,34.1-15.3,34.1-34.1
			C-214.7,685.4-230,670.1-248.8,670.1z M-248.8,721.3c-9.4,0-17.1-7.7-17.1-17.1s7.7-17.1,17.1-17.1c9.4,0,17.1,7.7,17.1,17.1
			S-239.4,721.3-248.8,721.3z"/>
	</g>
</g>
<g>
	<g>
		<path d="M109.6,772.5c-18.8,0-34.1,15.3-34.1,34.1c0,18.8,15.3,34.1,34.1,34.1s34.1-15.3,34.1-34.1
			C143.7,787.8,128.4,772.5,109.6,772.5z M109.6,823.7c-9.4,0-17.1-7.7-17.1-17.1c0-9.4,7.7-17.1,17.1-17.1
			c9.4,0,17.1,7.7,17.1,17.1C126.7,816,119,823.7,109.6,823.7z"/>
	</g>
</g>
</svg>
