<?xml version="1.0" encoding="iso-8859-1"?>
<!-- Generator: Adobe Illustrator 19.0.0, SVG Export Plug-In . SVG Version: 6.00 Build 0)  -->
<svg version="1.1" id="Layer_1" xmlns="http://www.w3.org/2000/svg" xmlns:xlink="http://www.w3.org/1999/xlink" x="0px" y="0px"
	 viewBox="0 0 230.569 230.569" style="enable-background:new 0 0 230.569 230.569;" xml:space="preserve">
<g>
	<g>
		<g>
			<path d="M131.755,78.229c0-9.081-7.386-16.469-16.469-16.469c-9.083,0-16.469,7.388-16.469,16.469s7.386,16.469,16.469,16.469
				C124.368,94.698,131.755,87.31,131.755,78.229z M107.05,78.229c0-4.541,3.695-8.235,8.235-8.235c4.539,0,8.235,3.693,8.235,8.235
				s-3.695,8.235-8.235,8.235C110.745,86.463,107.05,82.77,107.05,78.229z"/>
			<path d="M142.048,98.815c-17.028,0-30.88,13.852-30.88,30.88s13.852,30.88,30.88,30.88s30.88-13.852,30.88-30.88
				S159.076,98.815,142.048,98.815z M142.048,152.34c-12.484,0-22.645-10.159-22.645-22.645c0-12.486,10.161-22.645,22.645-22.645
				s22.645,10.159,22.645,22.645C164.693,142.181,154.532,152.34,142.048,152.34z"/>
			<path d="M214.125,98.815h-18.142c-2.099-10.281-6.196-20.17-11.998-28.942l12.834-12.832c3.108-3.106,4.817-7.242,4.809-11.644
				c-0.004-4.395-1.721-8.526-4.825-11.63c-6.417-6.421-16.863-6.427-23.272-0.018l-12.834,12.834
				c-8.77-5.8-18.661-9.899-28.942-11.996V16.445C131.755,7.378,124.368,0,115.286,0c-9.083,0-16.47,7.378-16.47,16.445v18.142
				c-10.281,2.097-20.172,6.196-28.942,11.996L57.04,33.748c-3.1-3.1-7.225-4.807-11.62-4.807c-0.008,0-0.016,0-0.02,0
				c-4.399,0.007-8.528,1.719-11.632,4.825c-3.108,3.108-4.825,7.242-4.825,11.64c-0.004,4.399,1.705,8.53,4.809,11.632
				l12.834,12.834c-5.802,8.772-9.899,18.66-11.998,28.942H16.446c-9.067,0.001-16.445,7.389-16.445,16.471
				c0,9.082,7.378,16.469,16.445,16.469h18.142c2.099,10.281,6.196,20.17,11.998,28.942l-12.834,12.832
				c-3.108,3.106-4.817,7.242-4.809,11.644c0.004,4.395,1.721,8.526,4.825,11.63c6.421,6.425,16.867,6.431,23.272,0.018
				l12.834-12.834c8.769,5.8,18.66,9.899,28.942,11.996v18.142c0,9.067,7.386,16.445,16.469,16.445s16.469-7.378,16.469-16.445
				v-18.142c10.281-2.097,20.172-6.196,28.942-11.996l12.834,12.834c3.1,3.1,7.225,4.807,11.62,4.807c0.008,0,0.016,0,0.02,0
				c4.399-0.006,8.528-1.719,11.632-4.825c3.108-3.108,4.825-7.242,4.825-11.64c0.004-4.399-1.705-8.53-4.809-11.632l-12.834-12.834
				c5.802-8.772,9.899-18.66,11.998-28.942h18.142c9.067,0,16.445-7.389,16.445-16.47S223.191,98.815,214.125,98.815z
				 M214.125,123.519h-21.58c-2.027,0-3.748,1.472-4.065,3.472c-1.813,11.407-6.365,22.392-13.168,31.766
				c-1.186,1.638-1.009,3.898,0.422,5.329l15.263,15.267c1.548,1.546,2.4,3.607,2.396,5.802c0,2.202-0.856,4.268-2.412,5.824
				c-1.552,1.554-3.619,2.41-5.818,2.412c-0.004,0-0.008,0-0.012,0c-2.195,0-4.254-0.85-5.798-2.394l-15.263-15.265
				c-1.427-1.432-3.691-1.606-5.327-0.422c-9.376,6.803-20.361,11.357-31.772,13.166c-1.999,0.317-3.47,2.042-3.47,4.066v21.58
				c0,4.528-3.695,8.211-8.235,8.211c-4.539,0-8.235-3.683-8.235-8.21v-21.58c0-2.024-1.472-3.749-3.47-4.067
				c-11.411-1.81-22.396-6.363-31.772-13.166c-0.724-0.527-1.572-0.784-2.416-0.784c-1.061,0-2.115,0.408-2.911,1.206
				l-15.263,15.265c-3.2,3.197-8.419,3.19-11.628-0.018c-1.552-1.554-2.409-3.621-2.412-5.82c-0.004-2.197,0.849-4.26,2.396-5.808
				l15.263-15.265c1.432-1.432,1.608-3.691,0.422-5.329c-6.803-9.375-11.355-20.359-13.168-31.766
				c-0.318-2.001-2.039-3.473-4.065-3.473h-21.58c-4.527,0-8.21-3.693-8.21-8.235c0-4.542,3.683-8.235,8.21-8.235h21.58
				c2.027,0,3.748-1.472,4.065-3.472c1.813-11.407,6.365-22.392,13.168-31.766c1.186-1.638,1.009-3.898-0.422-5.329L39.574,51.215
				c-1.548-1.546-2.4-3.607-2.396-5.802c0-2.202,0.856-4.268,2.412-5.824c1.552-1.554,3.619-2.41,5.818-2.412
				c0.004,0,0.008,0,0.012,0c2.195,0,4.254,0.85,5.798,2.394L66.48,54.836c1.432,1.433,3.695,1.612,5.327,0.422
				c9.376-6.803,20.361-11.357,31.772-13.166c1.999-0.317,3.47-2.042,3.47-4.066v-21.58c0-4.527,3.695-8.21,8.235-8.21
				c4.539,0,8.235,3.683,8.235,8.21v21.58c0,2.024,1.472,3.749,3.47,4.067c11.411,1.81,22.396,6.363,31.772,13.166
				c1.637,1.19,3.9,1.011,5.327-0.422l15.263-15.265c3.197-3.2,8.415-3.195,11.628,0.018c1.552,1.554,2.409,3.621,2.412,5.82
				c0.004,2.197-0.849,4.26-2.396,5.808l-15.263,15.265c-1.432,1.432-1.608,3.691-0.422,5.329
				c6.803,9.375,11.355,20.359,13.168,31.766c0.318,2.001,2.039,3.472,4.065,3.472h21.58c4.528,0,8.211,3.693,8.211,8.235
				C222.335,119.827,218.652,123.519,214.125,123.519z"/>
			<path d="M76.17,107.05c-12.484,0-22.645,10.159-22.645,22.645S63.686,152.34,76.17,152.34s22.645-10.159,22.645-22.645
				C98.816,117.209,88.656,107.05,76.17,107.05z M76.17,144.106c-7.945,0-14.411-6.465-14.411-14.411s6.465-14.411,14.411-14.411
				c7.946,0,14.411,6.465,14.411,14.411S84.115,144.106,76.17,144.106z"/>
		</g>
	</g>
</g>
<g>
</g>
<g>
</g>
<g>
</g>
<g>
</g>
<g>
</g>
<g>
</g>
<g>
</g>
<g>
</g>
<g>
</g>
<g>
</g>
<g>
</g>
<g>
</g>
<g>
</g>
<g>
</g>
<g>
</g>
</svg>
