<!-- Generated by IcoMoon.io -->
<svg version="1.1" xmlns="http://www.w3.org/2000/svg" width="512" height="512" viewBox="0 0 512 512">
<title></title>
<g id="icomoon-ignore">
</g>
<path d="M256 46.387l214.551 427.613h-429.103l214.552-427.613zM256 0c-11.035 0-22.070 7.441-30.442 22.324l-218.537 435.556c-16.743 29.766-2.5 54.12 31.652 54.12h434.654c34.15 0 48.396-24.354 31.65-54.12h0.001l-218.537-435.556c-8.371-14.883-19.406-22.324-30.441-22.324v0z"></path>
<path d="M288 416c0 17.673-14.327 32-32 32s-32-14.327-32-32c0-17.673 14.327-32 32-32s32 14.327 32 32z"></path>
<path d="M256 352c-17.673 0-32-14.327-32-32v-96c0-17.673 14.327-32 32-32s32 14.327 32 32v96c0 17.673-14.327 32-32 32z"></path>
</svg>
