<?xml version="1.0" encoding="UTF-8" standalone="no"?>
<svg
   xmlns:dc="http://purl.org/dc/elements/1.1/"
   xmlns:cc="http://creativecommons.org/ns#"
   xmlns:rdf="http://www.w3.org/1999/02/22-rdf-syntax-ns#"
   xmlns:svg="http://www.w3.org/2000/svg"
   xmlns="http://www.w3.org/2000/svg"
   viewBox="0 0 1056 816"
   height="816"
   width="1056"
   xml:space="preserve"
   id="svg2"
   version="1.1"><metadata
     id="metadata8"><rdf:RDF><cc:Work
         rdf:about=""><dc:format>image/svg+xml</dc:format><dc:type
           rdf:resource="http://purl.org/dc/dcmitype/StillImage" /></cc:Work></rdf:RDF></metadata><defs
     id="defs6"><clipPath
       id="clipPath22"
       clipPathUnits="userSpaceOnUse"><path
         id="path20"
         d="M 0,612 H 792 V 0 H 0 Z" /></clipPath><clipPath
       id="clipPath58"
       clipPathUnits="userSpaceOnUse"><path
         id="path56"
         d="m 513.864,301.433 h 13.946 v -8.242 h -13.946 z" /></clipPath></defs><g
     transform="matrix(1.3333333,0,0,-1.3333333,0,816)"
     id="g10"><g
       transform="translate(256.9079,240.0683)"
       id="g12"><path
         id="path14"
         style="fill:#e43e2b;fill-opacity:1;fill-rule:nonzero;stroke:none"
         d="m 0,0 -78.81,46.614 0.964,91.558 79.774,44.944 78.809,-46.614 -0.964,-91.558 z" /></g><g
       id="g16"><g
         clip-path="url(#clipPath22)"
         id="g18"><g
           transform="translate(382.1362,349.337)"
           id="g24"><path
             id="path26"
             style="fill:#e43e2b;fill-opacity:1;fill-rule:nonzero;stroke:none"
             d="M 0,0 C 0,0.594 -0.105,1.189 -0.313,1.783 -0.52,2.378 -0.823,2.908 -1.219,3.374 -1.617,3.84 -2.098,4.222 -2.661,4.519 -3.228,4.817 -3.866,4.965 -4.579,4.965 h -6.302 v -9.93 h 6.302 c 0.713,0 1.358,0.143 1.931,0.43 0.576,0.288 1.057,0.659 1.443,1.115 0.387,0.456 0.685,0.981 0.892,1.576 C -0.105,-1.25 0,-0.636 0,0 m -22.388,13.022 c 0,0.417 0.108,0.748 0.326,0.996 0.219,0.247 0.546,0.372 0.981,0.372 h 19 c 1.366,0 2.654,-0.189 3.864,-0.564 1.209,-0.377 2.321,-0.898 3.33,-1.561 1.011,-0.666 1.922,-1.458 2.735,-2.38 0.814,-0.922 1.502,-1.917 2.067,-2.987 0.565,-1.07 0.996,-2.197 1.292,-3.376 0.298,-1.179 0.448,-2.373 0.448,-3.581 0,-1.785 -0.322,-3.529 -0.968,-5.233 -0.642,-1.705 -1.561,-3.221 -2.75,-4.55 -1.189,-1.328 -2.615,-2.403 -4.281,-3.226 -1.663,-0.822 -3.508,-1.243 -5.53,-1.263 h -9.007 v -14.152 c 0,-0.853 -0.458,-1.279 -1.369,-1.279 h -8.831 c -0.395,0 -0.713,0.103 -0.952,0.312 -0.237,0.208 -0.355,0.531 -0.355,0.967 z" /></g><g
           transform="translate(409.2507,353.3632)"
           id="g28"><path
             id="path30"
             style="fill:#e43e2b;fill-opacity:1;fill-rule:nonzero;stroke:none"
             d="m 0,0 c 0.375,0.553 0.833,1.102 1.367,1.645 0.537,0.543 1.166,1.028 1.889,1.454 0.722,0.423 1.546,0.771 2.468,1.038 0.922,0.265 1.966,0.4 3.135,0.4 2.259,0 4.278,-0.435 6.052,-1.305 1.773,-0.871 3.28,-2.056 4.518,-3.558 1.24,-1.503 2.181,-3.257 2.824,-5.266 0.646,-2.009 0.969,-4.153 0.969,-6.432 v -19.474 c 0,-0.754 -0.165,-1.324 -0.491,-1.711 -0.329,-0.385 -0.848,-0.58 -1.561,-0.58 H 14.3 c -0.851,0 -1.436,0.144 -1.752,0.432 -0.32,0.286 -0.478,0.848 -0.478,1.68 v 19.653 c 0,0.851 -0.163,1.645 -0.49,2.378 -0.326,0.732 -0.768,1.373 -1.323,1.918 C 9.702,-7.183 9.054,-6.758 8.309,-6.45 7.567,-6.142 6.778,-5.989 5.946,-5.989 5.233,-5.989 4.535,-6.132 3.85,-6.42 3.167,-6.707 2.552,-7.114 2.006,-7.639 1.462,-8.164 1.004,-8.793 0.639,-9.526 0.273,-10.261 0.059,-11.072 0,-11.965 v -19.624 c 0,-0.335 -0.066,-0.673 -0.194,-1.011 -0.129,-0.336 -0.321,-0.594 -0.58,-0.772 -0.257,-0.158 -0.501,-0.267 -0.728,-0.328 -0.227,-0.059 -0.49,-0.089 -0.787,-0.089 h -6.72 c -0.851,0 -1.467,0.21 -1.843,0.625 -0.377,0.416 -0.566,0.971 -0.566,1.666 v 24.201 0.208 8.843 0.15 11.029 c 0,0.674 0.189,1.22 0.566,1.635 0.376,0.417 0.992,0.626 1.843,0.626 h 6.72 c 0.455,0 0.962,-0.16 1.515,-0.476 0.259,-0.179 0.451,-0.436 0.58,-0.774 C -0.066,13.607 0,13.29 0,12.992 Z" /></g><g
           transform="translate(448.1111,338.4244)"
           id="g32"><path
             id="path34"
             style="fill:#e43e2b;fill-opacity:1;fill-rule:nonzero;stroke:none"
             d="m 0,0 c 0,-1.307 0.201,-2.531 0.609,-3.67 0.405,-1.142 0.982,-2.126 1.723,-2.96 0.744,-0.833 1.646,-1.491 2.707,-1.977 1.06,-0.486 2.253,-0.728 3.583,-0.728 1.288,0 2.45,0.242 3.491,0.728 1.041,0.486 1.923,1.144 2.648,1.977 0.725,0.834 1.278,1.818 1.663,2.96 0.389,1.139 0.58,2.363 0.58,3.67 0,1.27 -0.191,2.478 -0.58,3.628 -0.385,1.149 -0.938,2.16 -1.663,3.033 C 14.036,7.532 13.154,8.222 12.113,8.727 11.072,9.233 9.91,9.485 8.622,9.485 7.292,9.485 6.099,9.233 5.039,8.727 3.978,8.222 3.076,7.532 2.332,6.661 1.591,5.788 1.014,4.777 0.609,3.628 0.201,2.478 0,1.27 0,0 m -10.853,0 c 0,1.825 0.233,3.578 0.698,5.263 0.466,1.684 1.12,3.245 1.961,4.683 0.843,1.438 1.854,2.745 3.033,3.924 1.179,1.179 2.493,2.185 3.939,3.019 1.449,0.831 3.01,1.475 4.683,1.933 1.677,0.454 3.425,0.683 5.25,0.683 2.694,0 5.227,-0.5 7.595,-1.502 2.368,-1.001 4.429,-2.378 6.185,-4.133 1.755,-1.754 3.141,-3.815 4.162,-6.183 1.021,-2.37 1.532,-4.932 1.532,-7.687 0,-1.823 -0.234,-3.572 -0.698,-5.246 -0.468,-1.677 -1.12,-3.238 -1.963,-4.684 -0.843,-1.447 -1.854,-2.759 -3.033,-3.938 -1.179,-1.181 -2.494,-2.192 -3.939,-3.034 -1.446,-0.843 -2.997,-1.492 -4.654,-1.948 -1.656,-0.456 -3.385,-0.683 -5.187,-0.683 -1.825,0 -3.573,0.227 -5.25,0.683 -1.673,0.456 -3.234,1.105 -4.683,1.948 -1.446,0.842 -2.76,1.853 -3.939,3.034 -1.179,1.179 -2.19,2.491 -3.033,3.938 -0.841,1.446 -1.495,3.007 -1.961,4.684 -0.465,1.674 -0.698,3.423 -0.698,5.246" /></g><g
           transform="translate(499.5456,348.8611)"
           id="g36"><path
             id="path38"
             style="fill:#e43e2b;fill-opacity:1;fill-rule:nonzero;stroke:none"
             d="m 0,0 c -0.772,0 -1.522,-0.153 -2.244,-0.461 -0.725,-0.308 -1.403,-0.718 -2.037,-1.233 -0.634,-0.516 -1.204,-1.1 -1.71,-1.756 -0.505,-0.654 -0.917,-1.317 -1.233,-1.991 H 7.968 C 7.552,-4.668 7.101,-3.954 6.615,-3.3 6.129,-2.646 5.574,-2.072 4.95,-1.576 4.326,-1.08 3.613,-0.695 2.809,-0.417 2.007,-0.138 1.07,0 0,0 m 14.302,-24.766 c -1.746,-1.606 -3.707,-2.861 -5.887,-3.761 -2.182,-0.903 -4.491,-1.354 -6.928,-1.354 -2.715,0 -5.283,0.496 -7.702,1.487 -2.417,0.991 -4.538,2.363 -6.361,4.118 -1.824,1.754 -3.272,3.821 -4.342,6.199 -1.07,2.379 -1.606,4.964 -1.606,7.76 0,1.744 0.214,3.434 0.641,5.069 0.425,1.635 1.029,3.167 1.813,4.594 0.782,1.426 1.734,2.74 2.854,3.939 1.119,1.199 2.374,2.225 3.761,3.078 1.388,0.851 2.895,1.516 4.52,1.991 1.625,0.476 3.339,0.714 5.142,0.714 1.646,0 3.241,-0.219 4.787,-0.653 C 6.541,7.978 7.993,7.362 9.35,6.57 c 1.358,-0.792 2.602,-1.744 3.731,-2.853 1.132,-1.11 2.102,-2.326 2.915,-3.643 0.812,-1.319 1.443,-2.725 1.887,-4.222 0.446,-1.497 0.67,-3.038 0.67,-4.622 0,-1.031 -0.014,-1.874 -0.044,-2.528 -0.031,-0.654 -0.185,-1.174 -0.461,-1.561 -0.279,-0.387 -0.74,-0.654 -1.383,-0.804 -0.644,-0.148 -1.591,-0.222 -2.839,-0.222 H -7.581 c 0.197,-1.268 0.599,-2.33 1.203,-3.181 0.605,-0.853 1.303,-1.532 2.097,-2.037 0.792,-0.506 1.635,-0.866 2.527,-1.086 0.891,-0.217 1.734,-0.326 2.526,-0.326 0.715,0 1.448,0.075 2.202,0.223 0.752,0.148 1.48,0.346 2.185,0.594 0.703,0.249 1.347,0.535 1.932,0.863 0.584,0.326 1.055,0.669 1.413,1.026 0.316,0.257 0.589,0.45 0.816,0.58 0.229,0.128 0.471,0.192 0.73,0.192 0.257,0 0.52,-0.089 0.787,-0.266 0.268,-0.18 0.57,-0.437 0.907,-0.774 l 3.152,-3.567 c 0.217,-0.259 0.356,-0.491 0.417,-0.7 0.059,-0.208 0.089,-0.422 0.089,-0.639 0,-0.397 -0.111,-0.739 -0.328,-1.026 -0.217,-0.288 -0.476,-0.54 -0.772,-0.757" /></g><g
           transform="translate(523.8953,356.8032)"
           id="g40"><path
             id="path42"
             style="fill:#e43e2b;fill-opacity:1;fill-rule:nonzero;stroke:none"
             d="m 0,0 c 0.257,0.217 0.53,0.356 0.818,0.415 0.287,0.061 0.56,0.091 0.817,0.091 H 6.126 C 6.481,0.506 6.789,0.44 7.046,0.311 7.305,0.183 7.522,0.01 7.7,-0.207 7.879,-0.425 8.023,-0.674 8.131,-0.95 8.24,-1.227 8.344,-1.513 8.444,-1.81 l 0.922,-3.794 c 0.297,0.613 0.728,1.309 1.293,2.09 0.565,0.78 1.283,1.512 2.156,2.193 0.872,0.684 1.906,1.255 3.107,1.721 1.199,0.465 2.59,0.697 4.178,0.697 2.259,0 4.311,-0.435 6.153,-1.304 1.845,-0.872 3.414,-2.057 4.713,-3.559 1.298,-1.503 2.304,-3.257 3.017,-5.266 0.715,-2.009 1.07,-4.153 1.07,-6.432 v -19.474 c 0,-0.754 -0.163,-1.324 -0.489,-1.711 -0.328,-0.385 -0.848,-0.58 -1.561,-0.58 h -6.868 c -0.853,0 -1.438,0.144 -1.754,0.432 -0.318,0.286 -0.476,0.848 -0.476,1.68 v 19.355 c 0,0.853 -0.194,1.66 -0.579,2.424 -0.388,0.762 -0.898,1.436 -1.532,2.022 -0.636,0.583 -1.354,1.044 -2.155,1.381 -0.804,0.338 -1.621,0.506 -2.454,0.506 -0.713,0 -1.443,-0.158 -2.185,-0.476 -0.743,-0.316 -1.428,-0.757 -2.052,-1.322 -0.624,-0.565 -1.149,-1.23 -1.576,-1.993 -0.426,-0.762 -0.668,-1.59 -0.728,-2.483 v -19.326 c 0,-0.335 -0.064,-0.673 -0.192,-1.011 -0.13,-0.336 -0.323,-0.594 -0.58,-0.772 -0.259,-0.158 -0.502,-0.267 -0.73,-0.328 -0.227,-0.059 -0.49,-0.089 -0.787,-0.089 h -6.72 c -0.853,0 -1.467,0.21 -1.842,0.625 -0.378,0.416 -0.565,0.971 -0.565,1.666 v 33.247 c 0,0.375 0.084,0.721 0.252,1.037 0.168,0.316 0.401,0.565 0.698,0.743 z" /></g><g
           transform="translate(564.8668,355.0148)"
           id="g44"><path
             id="path46"
             style="fill:#e43e2b;fill-opacity:1;fill-rule:nonzero;stroke:none"
             d="M 0,0 C 0,0.634 0.178,1.179 0.535,1.635 0.891,2.091 1.446,2.32 2.2,2.32 H 9.007 C 9.246,2.32 9.503,2.264 9.781,2.156 10.058,2.047 10.317,1.889 10.554,1.68 10.792,1.472 10.995,1.23 11.163,0.952 11.333,0.673 11.417,0.357 11.417,0 v -33.15 c 0,-0.754 -0.208,-1.324 -0.625,-1.711 -0.416,-0.385 -1.011,-0.579 -1.785,-0.579 H 2.2 c -1.467,0 -2.2,0.762 -2.2,2.29 z m 0,15.044 c 0,0.833 0.178,1.423 0.535,1.77 0.356,0.346 0.911,0.521 1.665,0.521 h 6.898 c 0.693,0 1.253,-0.175 1.68,-0.521 0.424,-0.347 0.639,-0.937 0.639,-1.77 V 9.248 C 11.417,9.009 11.362,8.752 11.253,8.474 11.143,8.196 10.99,7.929 10.792,7.672 10.593,7.413 10.351,7.201 10.063,7.031 9.776,6.863 9.454,6.779 9.098,6.779 H 2.2 C 0.733,6.779 0,7.601 0,9.248 Z" /></g><g
           transform="translate(581.1279,320.7043)"
           id="g48"><path
             id="path50"
             style="fill:#e43e2b;fill-opacity:1;fill-rule:nonzero;stroke:none"
             d="M 0,0 C -0.059,0.278 -0.01,0.55 0.15,0.818 0.308,1.085 0.446,1.309 0.565,1.487 L 12.4,18.166 1.191,34.103 c -0.2,0.257 -0.368,0.535 -0.506,0.833 -0.14,0.297 -0.194,0.568 -0.165,0.817 0.03,0.247 0.16,0.456 0.387,0.624 0.228,0.168 0.61,0.254 1.145,0.254 h 9.337 c 0.335,0 0.629,-0.145 0.876,-0.432 0.248,-0.288 0.53,-0.658 0.848,-1.114 l 5.677,-9.187 c 0.378,0.535 0.814,1.213 1.31,2.035 0.495,0.823 1.006,1.675 1.531,2.557 0.525,0.883 1.029,1.739 1.517,2.572 0.484,0.834 0.905,1.537 1.263,2.111 0.336,0.516 0.648,0.888 0.937,1.115 0.286,0.227 0.629,0.343 1.025,0.343 h 9.424 c 0.239,0 0.462,-0.05 0.669,-0.15 0.209,-0.099 0.372,-0.237 0.491,-0.415 0.12,-0.18 0.168,-0.387 0.15,-0.626 -0.022,-0.237 -0.15,-0.495 -0.387,-0.772 L 25.094,18.255 36.66,2.081 c 0.238,-0.337 0.442,-0.693 0.61,-1.07 0.168,-0.377 0.242,-0.723 0.222,-1.041 -0.02,-0.316 -0.163,-0.579 -0.43,-0.787 -0.268,-0.209 -0.719,-0.313 -1.353,-0.313 h -9.634 c -0.892,0 -1.556,0.516 -1.992,1.547 L 18.79,9.931 13.439,0.298 C 13.221,-0.138 12.943,-0.486 12.607,-0.743 12.27,-1.001 11.942,-1.13 11.626,-1.13 H 1.279 c -0.278,0 -0.515,0.06 -0.714,0.18 -0.198,0.118 -0.366,0.336 -0.506,0.654 z" /></g><g
           id="g52"><g
             id="g54" /><g
             id="g70"><g
               style="opacity:0.64999402"
               id="g68"
               clip-path="url(#clipPath58)"><g
                 id="g62"
                 transform="translate(516.1709,293.911)"><path
                   id="path60"
                   style="fill:#231f20;fill-opacity:1;fill-rule:nonzero;stroke:none"
                   d="M 0,0 H -1.394 V 6.795 H 0.32 C 0.788,6.795 1.237,6.712 1.655,6.547 2.077,6.381 2.451,6.144 2.769,5.842 3.087,5.538 3.341,5.176 3.525,4.765 3.712,4.345 3.807,3.884 3.807,3.394 3.807,2.936 3.725,2.502 3.562,2.104 3.399,1.708 3.169,1.356 2.879,1.06 2.594,0.77 2.258,0.533 1.881,0.356 1.503,0.178 1.092,0.07 0.66,0.036 0.564,0.027 0.459,0.019 0.355,0.012 0.242,0.004 0.122,0 0,0 m -2.307,-0.72 h 2.76 c 0.394,0 0.779,0.048 1.144,0.143 0.366,0.095 0.71,0.232 1.021,0.405 C 2.929,0.001 3.217,0.214 3.472,0.46 3.728,0.707 3.951,0.986 4.135,1.289 4.317,1.59 4.46,1.92 4.559,2.271 4.658,2.62 4.708,2.996 4.708,3.388 4.708,3.774 4.657,4.148 4.556,4.498 4.455,4.854 4.311,5.189 4.129,5.494 3.948,5.797 3.727,6.075 3.471,6.32 3.211,6.568 2.92,6.785 2.605,6.964 2.293,7.141 1.952,7.28 1.589,7.376 1.227,7.473 0.845,7.522 0.453,7.522 h -2.76 z" /></g><g
                 id="g66"
                 transform="translate(526.986,293.1908)"><path
                   id="path64"
                   style="fill:#231f20;fill-opacity:1;fill-rule:nonzero;stroke:none"
                   d="M 0,0 H 0.824 L -2.013,4.234 0.671,8.242 H -0.155 L -2.428,4.871 -4.672,8.242 H -5.511 L -2.842,4.233 -5.676,0 h 0.848 l 2.401,3.596 z" /></g></g></g></g><g
           transform="translate(403.4186,293.1777)"
           id="g72"><path
             id="path74"
             style="fill:#231f20;fill-opacity:1;fill-rule:nonzero;stroke:none"
             d="m 0,0 c -1.919,0 -3.861,1.431 -3.861,4.166 0,2.715 1.942,4.136 3.861,4.136 1.918,0 3.86,-1.421 3.86,-4.136 C 3.86,1.431 1.918,0 0,0 m -0.01,11.276 c -3.385,0 -7.029,-2.225 -7.029,-7.11 0,-4.896 3.644,-7.125 7.029,-7.125 3.385,0 7.028,2.229 7.028,7.125 0,4.885 -3.643,7.11 -7.028,7.11" /></g><g
           transform="translate(423.4843,290.4987)"
           id="g76"><path
             id="path78"
             style="fill:#231f20;fill-opacity:1;fill-rule:nonzero;stroke:none"
             d="m 0,0 h 0.907 v 13.751 l -3.159,-0.037 v -7.36 l -7.979,7.418 h -0.927 V 0.02 h 3.199 v 7.378 z" /></g><g
           transform="translate(427.1077,290.4527)"
           id="g80"><path
             id="path82"
             style="fill:#231f20;fill-opacity:1;fill-rule:nonzero;stroke:none"
             d="m 0,0 h 3.198 v 7.444 l 7.96,-7.398 h 0.907 V 13.757 H 8.907 V 6.4 l -7.98,7.418 -0.927,0 z" /></g><g
           transform="translate(441.9028,290.5188)"
           id="g84"><path
             id="path86"
             style="fill:#231f20;fill-opacity:1;fill-rule:nonzero;stroke:none"
             d="M 0,0 H 8.886 V 2.669 H 3.056 V 5.745 H 8.275 V 8.414 H 3.056 v 2.587 h 5.647 v 2.69 l -8.703,0 z" /></g><g
           transform="translate(469.685,290.5188)"
           id="g88"><path
             id="path90"
             style="fill:#231f20;fill-opacity:1;fill-rule:nonzero;stroke:none"
             d="m 0,0 h 3.036 v 11.001 h 4.225 v 2.69 H -3.875 v -2.69 H 0 Z" /></g><g
           transform="translate(478.9848,290.5188)"
           id="g92"><path
             id="path94"
             style="fill:#231f20;fill-opacity:1;fill-rule:nonzero;stroke:none"
             d="M 0,0 H 3.019 L 3.042,13.691 H -0.022 Z" /></g><g
           transform="translate(489.8131,290.3562)"
           id="g96"><path
             id="path98"
             style="fill:#231f20;fill-opacity:1;fill-rule:nonzero;stroke:none"
             d="m 0,0 h 1.176 l 5.952,13.648 v 0.205 H 4.101 L 0.842,5.786 H 0.357 l -3.341,8.067 h -3.028 v -0.204 z" /></g><g
           transform="translate(498.4974,290.5188)"
           id="g100"><path
             id="path102"
             style="fill:#231f20;fill-opacity:1;fill-rule:nonzero;stroke:none"
             d="M 0,0 H 8.886 V 2.669 H 3.056 V 5.745 H 8.275 V 8.414 H 3.056 v 2.587 h 5.647 v 2.69 l -8.703,0 z" /></g><g
           transform="translate(390.8336,304.3724)"
           id="g104"><path
             id="path106"
             style="fill:#231f20;fill-opacity:1;fill-rule:nonzero;stroke:none"
             d="m 0,0 c -3.371,0 -7.008,-2.193 -7.029,-7.009 0.021,-4.8 3.635,-6.987 6.984,-6.987 v -0.285 l 0.044,0.285 c 1.902,0 3.629,0.645 4.789,1.78 l -1.954,1.954 c -0.42,-0.33 -1.431,-0.984 -2.834,-0.984 -2.183,0 -3.83,1.822 -3.83,4.238 0,2.547 1.539,4.258 3.83,4.258 1.435,0 2.431,-0.764 2.847,-1.154 l 2.01,2.01 C 3.68,-0.687 1.926,0 0,0" /></g><g
           transform="translate(459.5825,304.3724)"
           id="g108"><path
             id="path110"
             style="fill:#231f20;fill-opacity:1;fill-rule:nonzero;stroke:none"
             d="m 0,0 c -3.371,0 -7.008,-2.193 -7.029,-7.009 0.021,-4.8 3.635,-6.987 6.984,-6.987 v -0.285 l 0.044,0.285 c 1.902,0 3.629,0.645 4.789,1.78 l -1.954,1.954 c -0.42,-0.33 -1.431,-0.984 -2.834,-0.984 -2.183,0 -3.83,1.822 -3.83,4.238 0,2.547 1.539,4.258 3.83,4.258 1.435,0 2.431,-0.764 2.847,-1.154 l 2.01,2.01 C 3.68,-0.687 1.926,0 0,0" /></g><g
           transform="translate(365.3646,296.3595)"
           id="g112"><path
             id="path114"
             style="fill:#4f4c4d;fill-opacity:1;fill-rule:nonzero;stroke:none"
             d="m 0,0 c 0,0.102 -0.02,0.203 -0.058,0.303 -0.039,0.102 -0.094,0.193 -0.163,0.272 -0.069,0.079 -0.151,0.143 -0.248,0.194 -0.096,0.051 -0.2,0.076 -0.312,0.076 h -1.338 v -1.69 h 1.338 c 0.112,0 0.215,0.023 0.31,0.071 0.094,0.048 0.178,0.11 0.249,0.189 0.07,0.079 0.125,0.17 0.164,0.272 C -0.02,-0.212 0,-0.107 0,0 m -0.268,2.939 c 0,0.101 -0.019,0.196 -0.055,0.284 -0.038,0.087 -0.09,0.164 -0.158,0.232 -0.067,0.067 -0.148,0.122 -0.244,0.16 -0.093,0.039 -0.197,0.057 -0.309,0.057 H -2.119 V 2.207 h 1.07 c 0.115,0 0.221,0.016 0.318,0.052 0.095,0.035 0.178,0.086 0.245,0.152 0.068,0.066 0.12,0.143 0.16,0.232 0.039,0.091 0.058,0.188 0.058,0.296 m -3.809,1.993 c 0,0.071 0.02,0.128 0.059,0.169 0.038,0.043 0.092,0.065 0.163,0.065 h 3.359 c 0.297,0 0.577,-0.058 0.84,-0.17 C 0.608,4.882 0.838,4.728 1.036,4.53 1.232,4.332 1.388,4.102 1.503,3.837 1.617,3.572 1.675,3.288 1.675,2.985 1.675,2.732 1.635,2.496 1.556,2.279 1.477,2.062 1.365,1.867 1.22,1.694 1.462,1.472 1.655,1.207 1.797,0.901 1.938,0.594 2.009,0.268 2.009,-0.076 2.009,-0.382 1.95,-0.673 1.831,-0.948 1.714,-1.223 1.554,-1.464 1.354,-1.671 1.153,-1.879 0.919,-2.044 0.65,-2.165 0.382,-2.286 0.1,-2.347 -0.198,-2.347 h -3.657 c -0.067,0 -0.12,0.019 -0.161,0.053 -0.04,0.036 -0.061,0.091 -0.061,0.165 z" /></g><g
           transform="translate(371.1807,298.7522)"
           id="g116"><path
             id="path118"
             style="fill:#4f4c4d;fill-opacity:1;fill-rule:nonzero;stroke:none"
             d="M 0,0 1.22,2.615 C 1.242,2.656 1.258,2.686 1.271,2.704 1.284,2.722 1.299,2.737 1.312,2.745 1.326,2.753 1.34,2.758 1.355,2.76 1.37,2.762 1.388,2.766 1.408,2.773 H 3.356 C 3.379,2.773 3.399,2.765 3.414,2.75 3.428,2.735 3.437,2.717 3.437,2.697 3.437,2.659 3.414,2.617 3.366,2.57 L 0.968,-1.675 v -2.827 c 0,-0.158 -0.077,-0.237 -0.232,-0.237 h -1.513 c -0.068,0 -0.12,0.021 -0.157,0.062 -0.038,0.043 -0.056,0.101 -0.056,0.175 v 2.839 L -3.382,2.57 c -0.045,0.043 -0.066,0.086 -0.066,0.127 0,0.02 0.006,0.038 0.02,0.053 0.013,0.015 0.032,0.023 0.056,0.023 h 1.948 C -1.401,2.766 -1.383,2.762 -1.368,2.76 -1.355,2.758 -1.342,2.753 -1.329,2.745 -1.316,2.737 -1.301,2.722 -1.288,2.704 -1.275,2.686 -1.256,2.656 -1.232,2.615 Z" /></g><g
           transform="translate(256.4532,318.79)"
           id="g120"><path
             id="path122"
             style="fill:#ffffff;fill-opacity:1;fill-rule:nonzero;stroke:none"
             d="M 0,0 57.982,47.695 V 4.003 L 39.51,-5.712 Z m 38.221,-26.708 -18.186,1.641 -35.757,25.584 60.193,-8.651 8.653,-1.469 z M 9.543,-45.071 -3.633,-39.559 -16.591,-0.937 29.192,-33.695 Z m -29.051,-2.097 -10.472,12.619 7.548,45.714 18.515,-55.184 1.383,-4.563 z m -4.618,58.431 -7.28,-44.093 -0.01,0.012 -1.716,-9.766 -10.609,20.22 z m -1.029,1.586 -22.803,-39.091 -3.439,16.704 z m -27.804,-9.515 38.899,21.199 -41.318,-35.249 -0.181,-0.136 z m -3.557,0.25 12.918,21.364 33.474,3.652 -42.443,-23.131 0.018,0.098 z m 20.257,32.18 -17.683,2.306 26.38,6.594 -6.273,6.273 2.842,6.494 2.273,-6.596 7.817,-1.202 20.351,-0.288 10.007,-8.339 6.798,-3.527 4.334,-6.935 -8.479,2.292 -0.134,-0.012 -68.852,-7.627 z M 30.124,62.34 57.717,49.662 50.254,43.523 Z M 59.67,2.984 59.754,50.466 21.73,67.976 48.995,42.487 -2.259,0.327 l -15.508,2.242 -1.108,3.302 -2.903,9.58 15.683,13.588 18.057,2.088 12.335,-3.334 -6.916,11.067 -7.067,3.627 -10.245,8.537 -20.773,0.286 -6.752,1.038 -3.351,9.719 -5.035,-11.509 4.979,-4.979 -32.126,-8.031 21.133,-2.757 -24.201,-12.403 20.327,2.295 -15.248,-25.218 6.113,2.831 -3.132,-17.085 5.161,3.871 4.111,-19.966 3.998,6.767 12.401,-23.634 1.983,10.999 9.99,-12.04 20.154,-1.679 -2.653,8.756 12.515,-5.237 22.888,13.251 -9.587,6.675 15.964,-1.441 17.444,20.024 -13.931,2.366 z" /></g><g
           transform="translate(256.4532,318.79)"
           id="g124"><path
             id="path126"
             style="fill:none;stroke:#ffffff;stroke-width:1;stroke-linecap:butt;stroke-linejoin:miter;stroke-miterlimit:10;stroke-dasharray:none;stroke-opacity:1"
             d="M 0,0 57.982,47.695 V 4.003 L 39.51,-5.712 Z m 38.221,-26.708 -18.186,1.641 -35.757,25.584 60.193,-8.651 8.653,-1.469 z M 9.543,-45.071 -3.633,-39.559 -16.591,-0.937 29.192,-33.695 Z m -29.051,-2.097 -10.472,12.619 7.548,45.714 18.515,-55.184 1.383,-4.563 z m -4.618,58.431 -7.28,-44.093 -0.01,0.012 -1.716,-9.766 -10.609,20.22 z m -1.029,1.586 -22.803,-39.091 -3.439,16.704 z m -27.804,-9.515 38.899,21.199 -41.318,-35.249 -0.181,-0.136 z m -3.557,0.25 12.918,21.364 33.474,3.652 -42.443,-23.131 0.018,0.098 z m 20.257,32.18 -17.683,2.306 26.38,6.594 -6.273,6.273 2.842,6.494 2.273,-6.596 7.817,-1.202 20.351,-0.288 10.007,-8.339 6.798,-3.527 4.334,-6.935 -8.479,2.292 -0.134,-0.012 -68.852,-7.627 z M 30.124,62.34 57.717,49.662 50.254,43.523 Z M 59.67,2.984 59.754,50.466 21.73,67.976 48.995,42.487 -2.259,0.327 l -15.508,2.242 -1.108,3.302 -2.903,9.58 15.683,13.588 18.057,2.088 12.335,-3.334 -6.916,11.067 -7.067,3.627 -10.245,8.537 -20.773,0.286 -6.752,1.038 -3.351,9.719 -5.035,-11.509 4.979,-4.979 -32.126,-8.031 21.133,-2.757 -24.201,-12.403 20.327,2.295 -15.248,-25.218 6.113,2.831 -3.132,-17.085 5.161,3.871 4.111,-19.966 3.998,6.767 12.401,-23.634 1.983,10.999 9.99,-12.04 20.154,-1.679 -2.653,8.756 12.515,-5.237 22.888,13.251 -9.587,6.675 15.964,-1.441 17.444,20.024 -13.931,2.366 z" /></g><g
           transform="translate(252.4144,362.787)"
           id="g128"><path
             id="path130"
             style="fill:#ffffff;fill-opacity:1;fill-rule:nonzero;stroke:none"
             d="M 0,0 -8.016,-4.641 5.063,-3.797 Z" /></g></g></g></g></svg>