<?xml version="1.0" encoding="UTF-8" standalone="no"?>
<svg
   xmlns:dc="http://purl.org/dc/elements/1.1/"
   xmlns:cc="http://creativecommons.org/ns#"
   xmlns:rdf="http://www.w3.org/1999/02/22-rdf-syntax-ns#"
   xmlns:svg="http://www.w3.org/2000/svg"
   xmlns="http://www.w3.org/2000/svg"
   viewBox="0 0 816 1056"
   height="1056"
   width="816"
   xml:space="preserve"
   id="svg2"
   version="1.1"><metadata
     id="metadata8"><rdf:RDF><cc:Work
         rdf:about=""><dc:format>image/svg+xml</dc:format><dc:type
           rdf:resource="http://purl.org/dc/dcmitype/StillImage" /></cc:Work></rdf:RDF></metadata><defs
     id="defs6" /><g
     transform="matrix(1.3333333,0,0,-1.3333333,0,1056)"
     id="g10"><g
       transform="translate(305.9079,304.0683)"
       id="g12"><path
         id="path14"
         style="fill:#e45a40;fill-opacity:1;fill-rule:nonzero;stroke:none"
         d="m 0,0 -78.81,46.614 0.964,91.558 79.774,44.944 78.809,-46.614 -0.964,-91.558 z" /></g><g
       transform="translate(305.4532,382.79)"
       id="g16"><path
         id="path18"
         style="fill:#ffffff;fill-opacity:1;fill-rule:nonzero;stroke:none"
         d="M 0,0 57.982,47.695 V 4.003 L 39.51,-5.712 Z m 38.221,-26.708 -18.186,1.641 -35.757,25.584 60.193,-8.651 8.653,-1.469 z M 9.543,-45.071 -3.633,-39.559 -16.591,-0.937 29.192,-33.695 Z m -29.051,-2.097 -10.472,12.619 7.548,45.714 18.515,-55.184 1.383,-4.563 z m -4.618,58.431 -7.28,-44.093 -0.01,0.012 -1.716,-9.766 -10.609,20.22 z m -1.029,1.586 -22.803,-39.091 -3.439,16.704 z m -27.804,-9.515 38.899,21.199 -41.318,-35.249 -0.181,-0.136 z m -3.557,0.25 12.918,21.364 33.474,3.652 -42.443,-23.131 0.018,0.098 z m 20.257,32.18 -17.683,2.306 26.38,6.594 -6.273,6.273 2.842,6.494 2.273,-6.596 7.817,-1.202 20.351,-0.288 10.007,-8.339 6.798,-3.527 4.334,-6.935 -8.479,2.292 -0.134,-0.012 -68.852,-7.627 z M 30.124,62.34 57.717,49.662 50.254,43.523 Z M 59.67,2.984 59.754,50.466 21.73,67.976 48.995,42.487 -2.259,0.327 l -15.508,2.242 -1.108,3.302 -2.903,9.58 15.683,13.588 18.057,2.088 12.335,-3.334 -6.916,11.067 -7.067,3.627 -10.245,8.537 -20.773,0.286 -6.752,1.038 -3.351,9.719 -5.035,-11.509 4.979,-4.979 -32.126,-8.031 21.133,-2.757 -24.201,-12.403 20.327,2.295 -15.248,-25.218 6.113,2.831 -3.132,-17.085 5.161,3.871 4.111,-19.966 3.998,6.767 12.401,-23.634 1.983,10.999 9.99,-12.04 20.154,-1.679 -2.653,8.756 12.515,-5.237 22.888,13.251 -9.587,6.675 15.964,-1.441 17.444,20.024 -13.931,2.366 z" /></g><g
       transform="translate(305.4532,382.79)"
       id="g20"><path
         id="path22"
         style="fill:none;stroke:#ffffff;stroke-width:1;stroke-linecap:butt;stroke-linejoin:miter;stroke-miterlimit:10;stroke-dasharray:none;stroke-opacity:1"
         d="M 0,0 57.982,47.695 V 4.003 L 39.51,-5.712 Z m 38.221,-26.708 -18.186,1.641 -35.757,25.584 60.193,-8.651 8.653,-1.469 z M 9.543,-45.071 -3.633,-39.559 -16.591,-0.937 29.192,-33.695 Z m -29.051,-2.097 -10.472,12.619 7.548,45.714 18.515,-55.184 1.383,-4.563 z m -4.618,58.431 -7.28,-44.093 -0.01,0.012 -1.716,-9.766 -10.609,20.22 z m -1.029,1.586 -22.803,-39.091 -3.439,16.704 z m -27.804,-9.515 38.899,21.199 -41.318,-35.249 -0.181,-0.136 z m -3.557,0.25 12.918,21.364 33.474,3.652 -42.443,-23.131 0.018,0.098 z m 20.257,32.18 -17.683,2.306 26.38,6.594 -6.273,6.273 2.842,6.494 2.273,-6.596 7.817,-1.202 20.351,-0.288 10.007,-8.339 6.798,-3.527 4.334,-6.935 -8.479,2.292 -0.134,-0.012 -68.852,-7.627 z M 30.124,62.34 57.717,49.662 50.254,43.523 Z M 59.67,2.984 59.754,50.466 21.73,67.976 48.995,42.487 -2.259,0.327 l -15.508,2.242 -1.108,3.302 -2.903,9.58 15.683,13.588 18.057,2.088 12.335,-3.334 -6.916,11.067 -7.067,3.627 -10.245,8.537 -20.773,0.286 -6.752,1.038 -3.351,9.719 -5.035,-11.509 4.979,-4.979 -32.126,-8.031 21.133,-2.757 -24.201,-12.403 20.327,2.295 -15.248,-25.218 6.113,2.831 -3.132,-17.085 5.161,3.871 4.111,-19.966 3.998,6.767 12.401,-23.634 1.983,10.999 9.99,-12.04 20.154,-1.679 -2.653,8.756 12.515,-5.237 22.888,13.251 -9.587,6.675 15.964,-1.441 17.444,20.024 -13.931,2.366 z" /></g><g
       transform="translate(301.4144,426.787)"
       id="g24"><path
         id="path26"
         style="fill:#ffffff;fill-opacity:1;fill-rule:nonzero;stroke:none"
         d="M 0,0 -8.016,-4.641 5.063,-3.797 Z" /></g></g></svg>