<?xml version="1.0" encoding="iso-8859-1"?>
<!-- Generator: Adobe Illustrator 19.0.0, SVG Export Plug-In . SVG Version: 6.00 Build 0)  -->
<svg version="1.1" id="Capa_1" xmlns="http://www.w3.org/2000/svg" xmlns:xlink="http://www.w3.org/1999/xlink" x="0px" y="0px"
	 viewBox="0 0 463 463" style="enable-background:new 0 0 463 463;" xml:space="preserve">
<g>
	<path d="M431.5,400c-5.972,0-11.561,1.671-16.325,4.569L287.711,277.104c-0.222-0.222-0.457-0.421-0.698-0.609
		C297,264.198,303,248.539,303,231.5c0-17.017-5.985-32.656-15.948-44.946l86.888-86.888C383.268,106.77,394.897,111,407.5,111
		c30.603,0,55.5-24.897,55.5-55.5S438.103,0,407.5,0S352,24.897,352,55.5c0,12.603,4.23,24.232,11.334,33.559l-86.888,86.888
		C264.156,165.985,248.517,160,231.5,160s-32.656,5.985-44.946,15.948l-40.123-40.123c2.898-4.764,4.569-10.353,4.569-16.325
		c0-17.369-14.131-31.5-31.5-31.5S88,102.131,88,119.5s14.131,31.5,31.5,31.5c5.972,0,11.561-1.671,16.325-4.569l40.123,40.123
		C165.985,198.844,160,214.483,160,231.5c0,9.652,1.933,18.858,5.415,27.266l-95.404,51.677C62.761,301.63,51.776,296,39.5,296
		C17.72,296,0,313.72,0,335.5S17.72,375,39.5,375S79,357.28,79,335.5c0-4.137-0.642-8.126-1.827-11.876l95.408-51.679
		C185.485,290.684,207.077,303,231.5,303c2.74,0,5.44-0.17,8.101-0.472l9.943,44.743C239.159,352.426,232,363.14,232,375.5
		c0,17.369,14.131,31.5,31.5,31.5s31.5-14.131,31.5-31.5c0-17.139-13.761-31.115-30.813-31.483l-9.944-44.747
		c8.174-2.75,15.693-6.93,22.253-12.257c0.188,0.241,0.387,0.476,0.609,0.698l127.464,127.464
		C401.671,419.939,400,425.528,400,431.5c0,17.369,14.131,31.5,31.5,31.5s31.5-14.131,31.5-31.5S448.869,400,431.5,400z M39.5,360
		C25.991,360,15,349.009,15,335.5S25.991,311,39.5,311S64,321.991,64,335.5S53.009,360,39.5,360z M280,375.5
		c0,9.098-7.402,16.5-16.5,16.5s-16.5-7.402-16.5-16.5s7.402-16.5,16.5-16.5S280,366.402,280,375.5z M407.5,15
		c22.332,0,40.5,18.168,40.5,40.5S429.832,96,407.5,96S367,77.832,367,55.5S385.168,15,407.5,15z M103,119.5
		c0-9.098,7.402-16.5,16.5-16.5s16.5,7.402,16.5,16.5s-7.402,16.5-16.5,16.5S103,128.598,103,119.5z M231.5,288
		c-31.154,0-56.5-25.346-56.5-56.5s25.346-56.5,56.5-56.5s56.5,25.346,56.5,56.5S262.654,288,231.5,288z M431.5,448
		c-9.098,0-16.5-7.402-16.5-16.5s7.402-16.5,16.5-16.5s16.5,7.402,16.5,16.5S440.598,448,431.5,448z"/>
	<path d="M231.5,192c-4.142,0-7.5,3.358-7.5,7.5s3.358,7.5,7.5,7.5c13.509,0,24.5,10.991,24.5,24.5c0,4.142,3.358,7.5,7.5,7.5
		s7.5-3.358,7.5-7.5C271,209.72,253.28,192,231.5,192z"/>
	<path d="M407.5,47c4.687,0,8.5,3.813,8.5,8.5c0,4.142,3.358,7.5,7.5,7.5s7.5-3.358,7.5-7.5c0-12.958-10.542-23.5-23.5-23.5
		c-4.142,0-7.5,3.358-7.5,7.5S403.358,47,407.5,47z"/>
</g>
<g>
</g>
<g>
</g>
<g>
</g>
<g>
</g>
<g>
</g>
<g>
</g>
<g>
</g>
<g>
</g>
<g>
</g>
<g>
</g>
<g>
</g>
<g>
</g>
<g>
</g>
<g>
</g>
<g>
</g>
</svg>
